<svg width="1366" height="768" viewBox="0 0 1366 768" fill="none" xmlns="http://www.w3.org/2000/svg">
<path fill-rule="evenodd" clip-rule="evenodd" d="M0 0L31.0455 64C31.0455 128 62.0909 320 93.1364 384C124.182 448 155.227 512 186.273 512C217.318 512 248.364 448 279.409 448C310.455 448 372.545 512 403.591 384C434.636 320 465.682 128 496.727 128C527.773 128 558.818 384 589.864 384C620.909 384 651.955 192 683 192C714.045 192 745.091 384 776.136 448C807.182 512 838.227 448 869.273 384C900.318 320 931.364 320 962.409 320C993.455 320 1055.55 384 1086.59 384C1117.64 320 1148.68 192 1179.73 128C1210.77 64 1241.82 64 1272.86 64C1303.91 64 1334.95 128 1334.95 128L1366 192V768H1334.95C1334.95 768 1303.91 768 1272.86 768C1241.82 768 1210.77 768 1179.73 768C1148.68 768 1117.64 768 1086.59 768C1055.55 768 993.455 768 962.409 768C931.364 768 900.318 768 869.273 768C838.227 768 807.182 768 776.136 768C745.091 768 714.045 768 683 768C651.955 768 620.909 768 589.864 768C558.818 768 527.773 768 496.727 768C465.682 768 434.636 768 403.591 768C372.545 768 310.455 768 279.409 768C248.364 768 217.318 768 186.273 768C155.227 768 124.182 768 93.1364 768C62.0909 768 31.0455 768 31.0455 768H0V0Z" fill="#E53118" fill-opacity="0.5"/>
</svg>
